<svg id="Layer_1" data-name="Layer 1" xmlns="http://www.w3.org/2000/svg" viewBox="0 0 141.22 259.82"><defs><style>.cls-1{fill:#fff;}</style></defs><title>class-icon</title><g id="Favorite"><path class="cls-1" d="M78.91,57.08c.21,6.86.37,13.71.58,20.57.16,6.4.91,6.11,6.81,8.56,8.56,3.58,16.29,6.81,24.81,10.35,7.6,3.2,9.56,4.36,17.58,2.2a60.55,60.55,0,0,0,6.07-2c10.64-4.45,5.94-5.65,1.5-13.67-5.9-10.64-10.93-24.18-17.49-33.16-5.24-7.11-18.87-3.53-27.43-6.4-2.33-.79-2.41-.87-3.16-3.2a30.39,30.39,0,0,1-.92-3.95c-.25-2-.21-2.08,1.16-3.41A16.94,16.94,0,0,0,93,24.79c.21-1,1.37-2,1.54-3.11a14.81,14.81,0,0,0,.21-4.28c-.25-2.29-.17-2.37-2-3.2s-1.83-3.82-2-6.53C90.49,4.31,89,2.6,86.17,1.35,82.1-.43,72.75-.47,68.68,1.35a6.67,6.67,0,0,0-4.57,6.32c-.17,2.7-.29,5.74-2,6.53s-1.74.91-2,3.2a14.52,14.52,0,0,0,.21,4.24c.17,1.16,1.33,2.08,1.54,3.16a17.32,17.32,0,0,0,4.57,8.15c1.37,1.33,1.41,1.33,1.16,3.37a29,29,0,0,1-.91,4c-.75,2.33-.83,2.37-3.16,3.16-8.56,2.87-22.19-.67-27.43,6.44C29.53,58.83,24.5,72.41,18.6,83.06c-4.45,8-9.14,9.22,1.5,13.63a45.09,45.09,0,0,0,6.07,2c8,2.2,10,1,17.58-2.16C52.26,93,60,89.79,68.55,86.21c5.9-2.49,6.65-2.16,6.86-8.56.17-6.86.37-13.71.54-20.57.12-4.74-3.53-2.82-4.12.67-.83,4.94-1.41,10-2.74,14.79-1.16,4.16-1.78,4.28-5.65,5.9-8.35,3.49-15.21,4.2-23.27,4.45-7.56.29-7.85,1.29-3.37-5.07,2.41-3.32,4.78-6.69,7.19-10,3.49-4.94,2.95-5,4.4.91,1.66,6.57.71,8.89,7.65,7,8.52-2.24,9.14-3.91,10.31-11.85,1.08-7.44.83-11.55,7.69-12.38a30.9,30.9,0,0,1,6.77,0c6.86.83,6.65,5,7.69,12.38,1.16,7.94,1.79,9.6,10.31,11.85,6.94,1.87,6-.46,7.64-7,1.45-5.9.92-5.86,4.45-1,2.37,3.37,4.74,6.69,7.15,10.06,4.49,6.32,4.2,5.32-3.37,5.07-8.06-.29-14.92-1-23.23-4.49-3.9-1.62-4.53-1.74-5.69-5.86A145.71,145.71,0,0,1,83,57.75c-.57-3.49-4.23-5.36-4.1-.67Zm17.91,185c-.54,2.46-1,4.9-1.54,7.35a10.85,10.85,0,0,1-1.87,4.78c-2.28,3.33,0,3.74,2.91,4.7a14.71,14.71,0,0,0,9.81,0c2.45-.83,5.15-1.41,3.2-4.36a9.18,9.18,0,0,1-1.5-4.45c-.41-2.41-.83-4.9-1.2-7.48-.58-3.58-.7-4.66-4.82-4.57-3.66,0-4.32.75-5,4ZM64.53,162c.12,1.62.25,3.28.29,4.86.12,2.53-.08,3.78.83,6.15a80.25,80.25,0,0,1,4.07,16.67c1.5,10.39,8,10.18,7.31-.33-.54-8.56-1.08-17.08-1.58-25.64-.21-3.12.62-3.82-2.58-4.16L67.1,159c-3.36-.33-2.78-.25-2.57,3.08Zm-1.78-43.59c9.76,0,19.57.12,29.34.17,8.1,0,9,.08,9.73,8.14,1.7,18.91,3.74,37.69,4.24,56.68.33,13.3,3.95,25.47,5.23,37.81.46,4.61,2.24,8.89-2.7,11.43a35.92,35.92,0,0,1-16.33,3.78c-5.65.08-4.41-.7-4.12-6,.7-13.63,1.42-27.3,2.16-40.93A323.94,323.94,0,0,1,76.2,150.29c-2.28-8.27-3.53-6.69-10-3.32-8.48,4.45-17.12,4.07-26.84,6.4-5.61,1.37-5.65,1.66.12,2.16,3.53.29,7.44.41,11.13.54,5.07.21,5.15,1,7.35,5.82a32.83,32.83,0,0,1,2.7,20.57c-1.12,5.44-1.45,4.32-6.23,2.54-14.67-5.49-28.22-10.93-43.17-16.41-11.35-4.2-16.08-9.18-4.82-18.12A279.41,279.41,0,0,1,49.19,122c5.4-2.87,7.52-3.53,13.55-3.5ZM81.32,90.87,94.9,98.72c3.83,2.24,3.83,1.91,3.83,6.32v3c0,2.66-.08,3.37-2.49,3.41-13.13.12-24.6,0-36.73,0-3.62,0-3.08.12-3.08-3.45V104c0-3.24-.08-3,2.7-4.61,4.78-2.74,9.56-5.57,14.33-8.31,4.07-2.37,3.79-2.58,7.86-.25Z"/></g></svg>