<svg id="Layer_1" data-name="Layer 1" xmlns="http://www.w3.org/2000/svg" viewBox="0 0 268.11 262.06"><defs><style>.cls-1{fill:#fff;}</style></defs><title>class-icon</title><g id="Favorite"><circle class="cls-1" cx="63.67" cy="20.71" r="20.71"/><path class="cls-1" d="M28,104.84a7.33,7.33,0,0,0,4.17,1.3,7.42,7.42,0,0,0,1.81-.23V200.5a11.38,11.38,0,0,0,22.76,0V117.4h5.29l12.34,85.09a11.38,11.38,0,0,0,22.53-3.27L83.81,108.69V75.1a21.66,21.66,0,0,0,2.38,3.41,13.39,13.39,0,0,0,3.34,2.8c-.06.73-.13,1.45-.21,2.15h0c-.17,1.49-.38,2.88-.64,4.13a14.23,14.23,0,0,0-.28,2.87,27.27,27.27,0,0,0,3,11.49A22.42,22.42,0,0,0,94,106.09a8.18,8.18,0,0,0,1.34,1.33,2.92,2.92,0,0,0,1.74.68h.07a2.08,2.08,0,0,0,1.77-1.2,4.47,4.47,0,0,0,.36-2,18.91,18.91,0,0,0-.51-3.86,123.44,123.44,0,0,1-2.22-18.41c.28,0,.57-.08.84-.15h0A12.48,12.48,0,0,0,102,80.36c.46-.34.89-.69,1.29-1.06a32.85,32.85,0,0,0,6.11-8.15,117.57,117.57,0,0,0,6.2-13.06,7.36,7.36,0,1,0-13.61-5.63,99.42,99.42,0,0,1-5.66,11.85l-.84-2.38-1.56-.64c0,.09,0,.19,0,.29l-.13-.35-6.26-2.59a2.55,2.55,0,0,1-1.58-2.36,2.45,2.45,0,0,1,.2-1l2.56-6.19a23.23,23.23,0,0,0-3.17-4.58,13.9,13.9,0,0,0-3.64-2.9,11.45,11.45,0,0,0-3.5-1.22,7.1,7.1,0,0,0-1.64-.2H75.33a22.68,22.68,0,0,1-23.31,0H41.14a7.08,7.08,0,0,0-1.91.27,35.39,35.39,0,0,0-12,4.27A92.17,92.17,0,0,0,9.57,58C5,62.3,2,65.7,1.85,65.82a7.36,7.36,0,0,0-1,8.26C1.16,74.59,10.21,92.44,28,104.84Zm67.69-1c-2.08-2.8-4.59-8.65-4.56-13.34a11.55,11.55,0,0,1,.22-2.31c.28-1.36.5-2.84.68-4.39h0c0-.43.08-.89.12-1.33a10.72,10.72,0,0,0,1.58.3,126.4,126.4,0,0,0,2.28,18.93,17.7,17.7,0,0,1,.45,3.09A8.37,8.37,0,0,1,95.73,103.82Zm-70.41-40a63.58,63.58,0,0,1,8.7-6V91A76.52,76.52,0,0,1,19.68,76.19c-1.23-1.65-2.27-3.16-3.12-4.46A113.14,113.14,0,0,1,25.32,63.81Z"/><path class="cls-1" d="M112,43.56a.53.53,0,0,0-.33-.49L96.5,36.79a.47.47,0,0,0-.2,0,.53.53,0,0,0-.49.33L88,56.08a.49.49,0,0,0,0,.19.53.53,0,0,0,.33.49l8,3.32c1-2.07,2.32-4.81,3.8-8.39A9.32,9.32,0,0,1,111,46.17l1-2.4A.58.58,0,0,0,112,43.56Z"/><circle class="cls-1" cx="233.62" cy="83.45" r="20.7" transform="translate(48.22 248.28) rotate(-61.29)"/><path class="cls-1" d="M255.13,247.55l-13.81-51.09a11.61,11.61,0,0,0-3.88-5.95l-34.36-27.75c2.11-8.66,5.9-17.34,9.7-25.12a50,50,0,0,1-4.23-4,56.06,56.06,0,0,1-10.07-14.7v0l0-.1a9.39,9.39,0,0,1,17.23-7.47l.27.55c.24.47.63,1.21,1.19,2.13a40.16,40.16,0,0,0,4.39,5.94c2.38-7.31,1.06-15.5-4.66-18.74a16.26,16.26,0,0,0-5.35-1.85,67.57,67.57,0,0,0-17.16-2.28,48.72,48.72,0,0,0-25.15,6.47c-8.52,5-16.07,13.89-20.36,27a7.37,7.37,0,1,0,14,4.63c3.46-10.32,8.48-15.69,13.93-19a30.88,30.88,0,0,1,11.33-3.91c-9.92,15-14.2,26.17-17.25,45.54-.83,10.33,3.33,15.54,8.65,18.5l6.77,30.73L151.71,214a11.51,11.51,0,0,0,4.51,22.57h0l46-9.2a11.5,11.5,0,0,0,9-13.76l-3.92-17.8,12.77,10.31,12.83,47.48a11.51,11.51,0,0,0,22.22-6Z"/><path class="cls-1" d="M214.12,112.81l-.27-.56,0-.1h0A7.36,7.36,0,0,0,200.28,118,53.55,53.55,0,0,0,210,132.25c6.53,7,17.36,14.4,32.28,14.4h.07a55.75,55.75,0,0,0,21.16-4.5A7.36,7.36,0,1,0,258,128.53a41.12,41.12,0,0,1-15.58,3.4c-9.93,0-16.74-4.68-21.65-9.8a42,42,0,0,1-5.36-7.06C214.79,114.11,214.38,113.33,214.12,112.81Z"/><rect class="cls-1" x="128.88" y="75.04" width="68.42" height="3.07"/><rect class="cls-1" x="143.24" y="81.49" width="35.48" height="3.07"/><rect class="cls-1" x="143.24" y="68.6" width="35.48" height="3.07"/><rect class="cls-1" x="102.77" y="186.68" width="69.04" height="3.68"/><rect class="cls-1" x="7.05" y="186.68" width="17.49" height="3.68"/></g></svg>