<svg id="Layer_1" data-name="Layer 1" xmlns="http://www.w3.org/2000/svg" viewBox="0 0 447.76 261.43"><defs><style>.cls-1{fill:#fff;}</style></defs><title>class-icon</title><g id="MERGED"><rect class="cls-1" y="256.51" width="442.84" height="4.92"/><path class="cls-1" d="M315.44,45.9l22.61-7.22a21.81,21.81,0,0,0,6.42-15.16c0-13-6-23.51-19.24-23.51S306,10.53,306,23.51C306,34.83,309.21,43.08,315.44,45.9Z"/><path class="cls-1" d="M443.19,100.13a2.45,2.45,0,0,0-.47-.7l-.62-.62a22.58,22.58,0,0,0-2.35-2.35l-48.9-48.9c-10-10-24.27-13-37.66-9.5.06-.1,0-.15-.17-.07l-1.39.44-1.5.48L277.67,62l-46-11.68c.29-6.87-1.07-14.56-6.5-21.1-4.47-5.39-14.92-11.47-29.4-11.14s-36.25,7.23-58.72,37.53c-28.17,38-50.84,77-69.07,108.33-13.15,22.62-25.31,43.49-35.69,56.93A121.82,121.82,0,0,1,14.4,196.13a4.92,4.92,0,0,0-8.79,4.42,128.3,128.3,0,0,0,20.2,28c-5.57,5.77-10.5,8.63-14.58,7.34a4.92,4.92,0,1,0-2.94,9.39,17.3,17.3,0,0,0,5.17.81c6.41,0,12.74-3.8,19.44-10.69C44.87,246,60.65,255.12,80,256.08c1.12.06,2.23.09,3.36.09,37.7,0,76.84-31.62,116.39-94.05,20.22-31.93,34.47-40.57,42.86-42.2a14.3,14.3,0,0,1,11.5,2.38c1.87,1.35,4.24,5.16,6.53,9.72a4.23,4.23,0,0,0-1.63,5.22l1.72,4a4.24,4.24,0,0,0,5,2.34c.62,1.58,1.2,3.12,1.69,4.52a4.92,4.92,0,0,0,9.29-3.24c-.35-1-1.09-3.09-2.13-5.7l44.76-23.22.11,0,0-.05L350.6,73.61l42.61,37c6.09-5.59,12.46.27,12.46.27s-4.35-2-10,2.68L344.4,164.8l0,.15a8.47,8.47,0,0,0-2,5.49c0,.1,0,.2,0,.3s0,.2,0,.28l4.28,81.9c0,2,1.92,3.6,4.28,3.6h8.55c2.35,0,4.28-1.62,4.28-3.6l4-73.82c-.48-4.36-4-8.08-4-8.08s5.54.08,7.68,4.59l65.53-42.35s0-.08.05-.1a22.73,22.73,0,0,0,6.22-33ZM350.66,73.54h0a6.85,6.85,0,0,0-1.26-1.25l-.1-.07a8.94,8.94,0,0,0-1.07-.68l-.12-.08,0,0c-1.9-1-4.94-1.79-9.61-.73-1.37.31-7.31,1.41-13.72,2.59l-15.65,28.48L269,126.76c-2.73-5.23-5.91-10.12-9.18-12.46a24.06,24.06,0,0,0-19.12-4c-15,2.91-31.55,18.58-49.29,46.6-38.66,61-75.94,91.22-110.89,89.41-16.57-.81-30.36-8.95-41-18.42,10.61-13.45,22.41-33.7,37.06-58.9C94.63,137.82,117.15,99.07,145,61.53,165.11,34.41,183.88,28.31,196.08,28c10.35-.29,18.25,3.61,21.56,7.58A19.75,19.75,0,0,1,221.89,48a4.25,4.25,0,0,0-4.24,2.57l-1.71,4a4.29,4.29,0,0,0,2.31,5.59l1.6.54a39,39,0,0,1-1.53,4A4.92,4.92,0,0,0,227.18,69a46.91,46.91,0,0,0,2-5.14l45.66,15.42.11,0v-.07l46.71-9,5.41-1.07h0l12.39-2.45a10.54,10.54,0,0,1,1.25-.14l.33-.06c.41,0,.86-.15,1.24-.15l0,0c6.82.08,8.51,7.37,8.51,7.37A2,2,0,0,0,350.66,73.54Z"/></g></svg>